<?xml version="1.0" standalone="no"?>
<!DOCTYPE svg PUBLIC "-//W3C//DTD SVG 20010904//EN"
 "http://www.w3.org/TR/2001/REC-SVG-20010904/DTD/svg10.dtd">
<svg version="1.0" xmlns="http://www.w3.org/2000/svg"
 width="126.000000pt" height="127.000000pt" viewBox="0 0 126.000000 127.000000"
 preserveAspectRatio="xMidYMid meet">
<metadata>
Created by potrace 1.10, written by Peter Selinger 2001-2011
</metadata>
<g transform="translate(0.000000,127.000000) scale(0.100000,-0.100000)"
fill="#ed8ea4" stroke="none">
<path d="M303 957 c-252 -252 -293 -297 -293 -322 0 -25 41 -70 293 -322 252
-252 297 -293 322 -293 25 0 70 41 322 293 252 252 293 297 293 322 0 25 -41
70 -293 322 -252 252 -297 293 -322 293 -25 0 -70 -41 -322 -293z m596 -19
c141 -139 260 -262 265 -274 5 -12 6 -32 3 -46 -8 -31 -519 -528 -544 -528 -9
0 -135 118 -280 262 -207 206 -263 268 -263 288 0 20 56 82 263 288 158 158
270 262 282 262 11 0 121 -101 274 -252z"/>
<path d="M520 995 l-105 -105 100 -100 c55 -55 104 -100 110 -100 6 0 57 47
115 105 l104 105 -100 100 c-55 55 -104 100 -110 100 -5 0 -56 -47 -114 -105z
m197 -17 c40 -40 73 -77 73 -83 0 -13 -152 -165 -165 -165 -15 0 -155 143
-155 159 0 16 148 161 164 161 6 0 43 -33 83 -72z"/>
<path d="M782 747 c-56 -56 -102 -107 -102 -113 0 -6 9 -19 20 -29 19 -17 23
-17 87 -1 74 18 113 39 113 61 0 10 -10 15 -30 15 -38 0 -40 25 -7 75 25 40
49 44 71 13 46 -65 -18 -181 -122 -225 l-35 -14 49 -50 c26 -27 50 -49 53 -49
10 0 211 205 211 215 0 10 -191 205 -201 205 -3 0 -50 -46 -107 -103z m38 -84
c0 -16 -61 -36 -74 -23 -7 7 0 20 19 40 26 27 29 28 41 12 7 -9 14 -22 14 -29z
m199 3 l22 -23 -76 -77 c-41 -42 -82 -76 -90 -76 -33 0 -24 25 23 66 30 26 57
61 68 89 11 25 22 45 25 45 3 0 16 -11 28 -24z"/>
<path d="M260 735 c-57 -57 -102 -107 -99 -109 47 -54 195 -196 204 -196 6 0
26 15 44 34 l33 34 -46 6 c-87 13 -111 55 -85 149 12 44 29 49 29 8 0 -24 6
-31 38 -44 20 -8 63 -18 95 -22 48 -6 61 -4 77 10 11 10 20 23 20 29 0 11
-190 206 -200 206 -3 0 -52 -47 -110 -105z m193 -23 c37 -37 64 -71 61 -75
-23 -22 -125 9 -155 47 -11 14 -26 26 -33 26 -20 0 -43 -31 -57 -77 -7 -24
-15 -43 -19 -43 -12 0 -32 28 -28 39 8 22 134 151 148 151 9 0 46 -31 83 -68z"/>
<path d="M606 499 c-79 -8 -80 -9 -133 -61 -29 -29 -53 -57 -53 -63 0 -6 45
-55 100 -110 l99 -99 108 106 107 107 -59 64 c-33 36 -67 65 -75 64 -8 0 -51
-3 -94 -8z m124 -65 c22 -20 40 -42 40 -48 0 -16 -140 -156 -155 -156 -15 0
-145 131 -145 146 0 5 16 26 36 45 31 30 43 35 102 40 37 3 70 7 74 7 5 1 26
-14 48 -34z"/>
</g>
</svg>
